<svg width="31" height="32" viewBox="0 0 31 32" fill="none" xmlns="http://www.w3.org/2000/svg">
<path d="M3.01929 15.034C3.15516 14.2705 3.81902 13.7144 4.59454 13.7144H11.6901C12.6859 13.7144 13.4399 14.6143 13.2654 15.5947L10.5807 30.6804C10.4448 31.4439 9.78098 32.0001 9.00546 32.0001H1.90988C0.914059 32.0001 0.16015 31.1001 0.334625 30.1197L3.01929 15.034Z" fill="#F5F5F5"/>
<path d="M19.7877 1.32518C19.9213 0.559108 20.5863 0 21.3639 0H28.4615C29.4551 0 30.2084 0.896041 30.0378 1.87482L25.0163 30.6748C24.8827 31.4409 24.2177 32 23.4401 32H16.3425C15.349 32 14.5956 31.104 14.7663 30.1252L19.7877 1.32518Z" fill="#F5F5F5"/>
</svg>
